<?xml version="1.0" standalone="no"?>
<!DOCTYPE svg PUBLIC "-//W3C//DTD SVG 20010904//EN"
 "http://www.w3.org/TR/2001/REC-SVG-20010904/DTD/svg10.dtd">
<svg version="1.0" xmlns="http://www.w3.org/2000/svg"
 width="888.000000pt" height="888.000000pt" viewBox="0 0 888.000000 888.000000"
 preserveAspectRatio="xMidYMid meet">
<metadata>
Created by potrace 1.14, written by Peter Selinger 2001-2017
</metadata>
<g transform="translate(0.000000,888.000000) scale(0.100000,-0.100000)"
fill="#000000" stroke="none">
<path d="M6540 7426 c0 -35 4 -45 20 -49 18 -5 20 0 20 44 0 42 -3 49 -20 49
-17 0 -20 -7 -20 -44z"/>
<path d="M5590 7387 c0 -60 2 -68 18 -65 14 3 18 16 20 70 3 62 1 67 -18 65
-18 -1 -20 -8 -20 -70z"/>
<path d="M5417 7383 c-4 -3 -7 -11 -7 -18 0 -16 99 -115 115 -115 33 0 22 24
-35 80 -67 65 -64 63 -73 53z"/>
<path d="M5730 7331 c-57 -55 -68 -81 -37 -81 16 0 117 102 117 117 0 30 -23
19 -80 -36z"/>
<path d="M6366 7284 c-7 -18 14 -29 54 -29 28 0 35 4 35 20 0 16 -7 20 -42 21
-26 1 -44 -4 -47 -12z"/>
<path d="M6663 7283 c-8 -20 3 -27 47 -28 38 -2 55 12 42 31 -11 15 -83 13
-89 -3z"/>
<path d="M5350 7198 c-12 -4 -17 -13 -14 -22 5 -14 75 -20 117 -9 16 4 25 32
10 34 -36 4 -98 3 -113 -3z"/>
<path d="M5754 7201 c-2 -2 -4 -12 -4 -22 0 -15 9 -17 68 -14 80 3 75 1 64 22
-7 12 -25 17 -67 17 -31 1 -58 -1 -61 -3z"/>
<path d="M6553 7172 c-7 -4 -12 -26 -11 -50 0 -34 4 -42 19 -42 16 0 19 8 19
44 0 46 -8 60 -27 48z"/>
<path d="M5460 7061 c-52 -52 -58 -61 -44 -72 14 -11 24 -4 76 49 53 55 65 82
37 82 -5 0 -36 -27 -69 -59z"/>
<path d="M5676 7104 c-4 -9 -5 -17 -4 -18 2 -1 29 -25 60 -55 47 -45 59 -52
72 -42 12 11 6 21 -45 72 -63 63 -73 68 -83 43z"/>
<path d="M5590 6975 c0 -58 2 -65 20 -65 18 0 20 7 20 65 0 58 -2 65 -20 65
-18 0 -20 -7 -20 -65z"/>
<path d="M8019 6906 c-2 -2 -26 -7 -54 -10 -27 -4 -61 -9 -75 -11 -26 -4 -202
-33 -255 -41 -16 -3 -43 -7 -60 -10 -16 -2 -41 -6 -55 -9 -14 -3 -45 -8 -70
-11 -25 -2 -52 -6 -60 -9 -8 -2 -35 -7 -60 -10 -25 -3 -58 -9 -75 -12 -16 -3
-41 -6 -55 -8 -14 -1 -38 -5 -55 -8 -31 -7 -61 -12 -130 -22 -23 -3 -50 -7
-60 -9 -21 -4 -89 -15 -140 -22 -16 -2 -43 -7 -58 -10 -15 -3 -44 -8 -65 -10
-20 -2 -70 -10 -109 -17 -40 -7 -80 -12 -88 -11 -8 1 -15 -1 -15 -4 0 -4 -10
-7 -22 -8 -13 0 -43 -4 -68 -8 -25 -4 -56 -9 -70 -11 -14 -2 -41 -7 -60 -10
-40 -8 -54 -10 -130 -19 -30 -4 -62 -9 -70 -11 -21 -6 -78 -15 -120 -20 -19
-3 -46 -7 -60 -10 -14 -3 -45 -8 -70 -11 -25 -3 -54 -7 -65 -9 -11 -2 -49 -8
-85 -14 -36 -6 -76 -13 -90 -15 -14 -3 -43 -7 -65 -10 -22 -4 -51 -8 -65 -11
-14 -2 -41 -7 -60 -9 -19 -3 -44 -8 -56 -10 -12 -2 -45 -7 -75 -11 -30 -4 -74
-11 -98 -16 -24 -5 -46 -7 -49 -5 -2 3 -12 1 -21 -3 -9 -5 -38 -12 -66 -15
-27 -3 -61 -8 -74 -10 -12 -3 -42 -8 -65 -10 -22 -3 -52 -8 -66 -11 -13 -2
-40 -7 -60 -10 -20 -3 -45 -7 -55 -9 -11 -2 -42 -7 -68 -10 -27 -4 -58 -9 -70
-12 -12 -2 -39 -6 -62 -9 -70 -11 -107 -17 -129 -21 -11 -2 -41 -7 -66 -10
-25 -3 -52 -7 -60 -9 -8 -2 -35 -7 -60 -10 -51 -7 -82 -12 -160 -25 -30 -5
-71 -11 -90 -14 -19 -3 -46 -8 -60 -11 -14 -3 -45 -8 -70 -11 -25 -3 -54 -8
-65 -10 -10 -2 -37 -6 -60 -9 -22 -3 -51 -8 -65 -10 -28 -5 -26 -5 -250 -40
-91 -14 -172 -28 -180 -30 -8 -2 -35 -6 -60 -9 -25 -3 -54 -7 -65 -10 -11 -2
-40 -7 -65 -10 -25 -3 -56 -8 -70 -11 -14 -3 -41 -7 -60 -10 -145 -20 -186
-47 -337 -220 -28 -33 -62 -71 -75 -85 -12 -15 -54 -61 -93 -104 -38 -44 -81
-91 -94 -105 -12 -14 -51 -57 -85 -95 -33 -38 -70 -80 -81 -92 -11 -12 -47
-52 -80 -90 -33 -37 -74 -82 -91 -101 -46 -49 -96 -111 -95 -117 1 -4 -6 -21
-15 -39 -18 -34 -23 -138 -10 -217 10 -59 25 -150 30 -175 2 -11 7 -45 11 -75
7 -55 10 -73 20 -120 17 -86 16 -118 -2 -124 -25 -7 -70 -16 -118 -22 -21 -3
-43 -8 -48 -11 -7 -4 -23 -8 -84 -17 -7 -1 -16 -5 -19 -9 -4 -4 -15 -7 -25 -7
-19 0 -35 -5 -204 -60 -209 -68 -430 -172 -585 -275 -155 -103 -241 -183 -338
-317 -34 -45 -66 -88 -72 -95 -5 -7 -10 -15 -10 -19 0 -3 -8 -18 -19 -32 -31
-44 -180 -347 -171 -347 1 0 -8 -25 -20 -55 -31 -76 -69 -208 -62 -215 3 -3
-1 -5 -8 -5 -7 0 -11 -3 -7 -6 3 -3 2 -16 -3 -29 -5 -13 -12 -42 -15 -66 -4
-24 -8 -46 -10 -49 -2 -3 -6 -23 -9 -45 -3 -22 -10 -69 -15 -105 -10 -65 -8
-333 2 -403 36 -243 163 -461 342 -587 53 -37 174 -100 194 -100 6 0 19 -4 29
-10 29 -17 124 -36 188 -39 128 -5 252 50 363 162 39 39 73 79 77 89 3 10 9
18 13 18 4 0 18 22 32 50 13 27 27 50 32 50 4 0 7 4 7 9 0 5 16 44 35 85 19
42 35 78 35 80 0 3 5 17 12 33 6 15 12 33 14 38 1 6 14 54 29 108 14 54 28
106 30 115 1 9 6 37 11 62 4 25 8 47 9 50 1 3 5 34 9 70 5 36 10 74 13 85 3
11 6 121 9 245 5 270 9 349 24 415 23 104 87 245 135 300 15 17 32 37 39 45
29 39 119 102 196 139 l85 40 7 -42 c3 -23 9 -55 11 -72 3 -16 11 -66 17 -110
15 -101 17 -115 23 -145 6 -27 25 -145 32 -195 9 -66 17 -92 42 -134 25 -43
74 -101 86 -101 3 0 43 -23 89 -51 46 -28 92 -55 103 -60 21 -10 57 -31 65
-39 3 -3 23 -15 45 -26 62 -33 259 -147 265 -153 3 -4 30 -19 60 -35 30 -16
66 -37 80 -46 14 -9 45 -28 70 -42 25 -14 85 -48 134 -77 49 -28 93 -51 97
-51 5 0 9 -4 9 -10 0 -5 8 -10 18 -10 10 0 22 -3 26 -7 16 -16 103 -22 168
-11 109 17 133 21 218 33 25 3 65 10 90 15 25 5 63 12 85 15 22 3 54 7 70 10
82 13 112 17 130 20 11 2 38 6 60 10 22 3 51 8 65 10 14 3 39 7 55 9 17 3 62
10 100 16 39 6 84 13 100 16 17 2 41 6 55 10 14 3 32 6 40 6 8 0 35 4 60 8 40
8 99 17 155 25 11 1 34 5 50 8 17 3 66 11 110 17 44 7 87 14 96 15 18 4 64 11
124 20 23 3 52 8 65 10 14 3 41 8 60 11 19 2 46 7 60 9 14 2 43 7 65 10 23 3
52 7 65 10 13 3 42 7 65 10 22 3 51 8 65 10 57 12 69 14 121 20 30 4 57 8 60
10 3 2 27 6 55 10 57 6 332 50 419 66 33 6 74 13 90 14 35 3 90 12 155 24 25
5 52 9 60 10 16 0 47 6 95 15 17 3 48 9 70 11 22 3 94 15 160 26 66 11 138 22
160 25 22 3 67 10 100 16 33 6 69 12 80 13 70 10 121 18 200 31 50 8 106 17
125 20 19 2 88 13 152 24 64 11 121 20 125 19 4 -1 11 0 16 1 14 5 22 6 77 15
30 4 64 9 75 11 11 2 31 5 45 8 14 2 43 7 65 10 22 3 51 8 65 11 13 2 42 7 65
10 22 4 54 8 70 11 17 3 41 7 55 9 14 2 41 6 60 10 75 13 96 16 135 20 74 8
185 35 225 55 56 29 112 93 137 158 23 62 25 147 3 252 -6 30 -13 71 -15 90
-3 34 -12 92 -21 134 -2 11 -6 39 -9 61 -3 22 -7 51 -10 65 -3 14 -11 66 -19
115 -8 50 -17 108 -21 130 -4 22 -8 53 -10 68 -9 62 -16 107 -35 216 -11 63
-18 117 -15 119 2 3 0 12 -4 21 -5 9 -12 39 -15 66 -3 28 -8 61 -10 75 -2 14
-10 59 -16 100 -6 41 -14 86 -16 100 -5 32 -12 71 -30 190 -18 115 -22 139
-34 210 -5 30 -12 73 -15 95 -3 22 -12 83 -21 135 -8 52 -17 109 -20 125 -2
17 -6 41 -9 55 -5 23 -8 47 -21 145 -2 22 -7 47 -9 55 -3 8 -7 33 -10 55 -3
22 -10 65 -15 95 -6 30 -12 71 -15 90 -2 19 -6 46 -9 60 -2 14 -8 48 -12 75
-4 28 -8 55 -10 60 -1 6 -5 30 -8 55 -4 25 -11 70 -16 100 -11 60 -21 124 -25
155 -11 83 -86 187 -159 220 -61 27 -171 46 -187 31z m-6114 -2715 c4 -30 9
-64 11 -76 2 -11 7 -36 10 -55 3 -19 7 -46 10 -60 2 -14 6 -45 9 -70 3 -25 8
-52 10 -60 2 -8 7 -35 10 -60 l6 -45 -70 -28 c-38 -15 -95 -45 -128 -66 -57
-37 -143 -112 -143 -125 0 -4 -11 -17 -24 -29 -34 -32 -101 -160 -129 -247
-22 -67 -28 -93 -42 -190 -2 -14 -5 -131 -6 -260 -3 -250 -16 -380 -55 -575
-9 -45 -63 -237 -73 -260 -5 -11 -24 -54 -42 -95 -18 -41 -41 -87 -51 -102
-10 -14 -18 -31 -18 -36 0 -6 -3 -12 -7 -14 -5 -1 -21 -23 -38 -47 -37 -55
-140 -148 -185 -168 -19 -8 -42 -19 -51 -23 -16 -8 -111 -23 -134 -21 -10 0
-64 9 -95 15 -30 5 -95 29 -107 39 -7 5 -13 7 -13 3 0 -10 -101 45 -160 88
-63 46 -120 104 -160 162 -28 40 -89 165 -95 194 -2 8 -4 15 -5 15 -1 0 -3 8
-6 18 -2 9 -6 25 -8 35 -3 9 -5 17 -6 17 -2 0 -7 27 -20 105 -9 58 -7 310 4
394 21 158 95 424 158 566 61 137 148 304 167 320 3 3 13 19 23 35 9 17 47 68
84 115 59 74 100 115 204 201 71 59 276 176 400 228 30 13 69 29 85 37 28 12
162 60 195 70 194 55 271 76 300 80 19 3 42 7 50 9 8 3 33 7 55 11 22 3 41 7
43 8 1 2 8 3 16 3 10 0 16 -18 21 -56z"/>
<path d="M923 5386 c3 -8 2 -18 -4 -21 -5 -4 -7 -10 -4 -15 3 -5 6 -25 7 -45
1 -20 4 -38 8 -40 12 -7 31 12 31 31 -1 77 -7 99 -25 102 -14 3 -17 0 -13 -12z"/>
<path d="M744 5316 c-9 -10 2 -26 51 -74 53 -52 65 -59 75 -47 10 12 2 26 -46
75 -32 33 -60 60 -63 60 -3 -1 -11 -7 -17 -14z"/>
<path d="M1059 5272 c-52 -52 -65 -82 -36 -82 23 1 120 107 114 124 -10 24
-18 20 -78 -42z"/>
<path d="M667 5129 c-6 -22 4 -25 73 -24 48 1 55 3 55 20 0 17 -8 20 -62 21
-51 1 -62 -2 -66 -17z"/>
<path d="M1082 5125 c3 -17 11 -20 53 -20 67 -1 83 4 81 23 -2 14 -15 17 -70
17 -61 0 -67 -1 -64 -20z"/>
<path d="M793 5006 c-53 -55 -59 -67 -47 -77 13 -10 26 -2 77 49 55 55 60 63
46 77 -13 13 -21 8 -76 -49z"/>
<path d="M1005 5050 c-4 -6 20 -38 54 -72 53 -54 61 -59 75 -46 13 14 8 22
-43 72 -59 56 -74 65 -86 46z"/>
<path d="M927 4983 c-2 -4 -5 -24 -5 -44 -1 -21 -2 -41 -3 -45 -5 -28 3 -44
21 -44 17 0 20 5 17 35 -3 20 -1 38 3 40 11 7 -3 58 -17 62 -6 2 -13 0 -16 -4z"/>
<path d="M7370 2560 c0 -39 3 -46 20 -47 17 -2 20 4 20 47 0 43 -3 49 -20 47
-17 -1 -20 -8 -20 -47z"/>
<path d="M7222 2431 c-13 -4 -23 -9 -23 -13 1 -5 1 -12 1 -16 0 -5 20 -9 45
-9 37 -1 45 2 45 17 0 20 -32 29 -68 21z"/>
<path d="M7528 2432 c-28 -2 -38 -8 -38 -20 0 -13 10 -18 44 -20 48 -2 62 7
43 29 -7 9 -26 13 -49 11z"/>
<path d="M7370 2265 c0 -38 3 -45 20 -45 17 0 20 7 20 45 0 38 -3 45 -20 45
-17 0 -20 -7 -20 -45z"/>
<path d="M2404 1842 c-5 -4 -8 -18 -7 -32 0 -14 1 -33 2 -42 1 -11 9 -18 20
-18 15 0 18 8 18 44 0 43 -13 62 -33 48z"/>
<path d="M2229 1665 c-6 -23 0 -31 26 -35 43 -8 64 -1 62 21 -1 15 -9 19 -44
19 -24 0 -44 -2 -44 -5z"/>
<path d="M2520 1655 c0 -19 35 -33 67 -27 14 3 23 11 23 23 0 16 -8 19 -45 19
-34 0 -45 -4 -45 -15z"/>
<path d="M2399 1523 c-7 -47 1 -72 20 -70 26 2 26 97 0 97 -11 0 -18 -10 -20
-27z"/>
</g>
</svg>
